{
	"accessors":[{
		"count":234,
		"bufferView":0,
		"type":"SCALAR",
		"componentType":5123,
		"byteOffset":0,
		"min":[0],
		"max":[43]
	},
	{
		"count":44,
		"bufferView":1,
		"type":"VEC3",
		"componentType":5126,
		"byteOffset":0,
		"min":[-27.094999313354493,
		0.0,
		-14.851008415222168],
		"max":[27.094999313354493,
		0.30000001192092898,
		14.851008415222168]
	},
	{
		"count":44,
		"bufferView":1,
		"type":"VEC2",
		"componentType":5126,
		"byteOffset":12,
		"min":[0.0,
		0.0],
		"max":[1.0,
		1.0]
	}],
	"asset":{
		"version":"2.0",
		"generator":"Created using the official Cinema 4D glTF Exporter 1.000x284978"
	},
	"scenes":[{
		"nodes":[0]
	}],
	"textures":[{
		"sampler":0,
		"source":0
	}],
	"nodes":[{
		"name":"Plane",
		"translation":[-73.47732543945313,
		64.32098388671875,
		59.493412017822269],
		"rotation":[0.5520316362380981,
		0.1523287147283554,
		-0.08217327296733856,
		0.8156620264053345],
		"scale":[1.0,
		1.0,
		1.0],
		"mesh":0
	}],
	"meshes":[{
		"name":"Plane",
		"primitives":[{
			"attributes":{
				"POSITION":1,
				"TEXCOORD_0":2
			},
			"indices":0,
			"material":0
		}]
	}],
	"bufferViews":[{
		"buffer":0,
		"byteOffset":0,
		"byteLength":468,
		"target":34963
	},
	{
		"buffer":0,
		"byteOffset":468,
		"byteLength":880,
		"target":34962,
		"byteStride":20
	}],
	"buffers":[{
		"uri":"data:application/octet-stream;base64,",
		"byteLength":1348
	}],
	"images":[{
		"uri":"data:image/jpeg;base64,"
	}],
	"samplers":[{
		"magFilter":9729,
		"minFilter":9729,
		"wrapS":10497,
		"wrapT":10497
	}],
	"materials":[{
		"pbrMetallicRoughness":{
			"baseColorFactor":[0.8,
			0.8,
			0.8,
			1.0],
			"metallicFactor":0.0,
			"roughnessFactor":0.5
		},
		"occlusionTexture":{
			"index":0,
			"strength":1.0
		},
		"emissiveFactor":[0.0,
		0.0,
		0.0],
		"alphaMode":"OPAQUE",
		"doubleSided":false,
		"name":"Mat"
	}]
}